<?xml version="1.0" encoding="UTF-8" standalone="no"?>
<!-- Created with Inkscape (http://www.inkscape.org/) -->

<svg
   xmlns:dc="http://purl.org/dc/elements/1.1/"
   xmlns:cc="http://creativecommons.org/ns#"
   xmlns:rdf="http://www.w3.org/1999/02/22-rdf-syntax-ns#"
   xmlns:svg="http://www.w3.org/2000/svg"
   xmlns="http://www.w3.org/2000/svg"
   xmlns:sodipodi="http://sodipodi.sourceforge.net/DTD/sodipodi-0.dtd"
   xmlns:inkscape="http://www.inkscape.org/namespaces/inkscape"
   width="99.48333mm"
   height="85.486496mm"
   viewBox="0 0 99.48333 85.486496"
   version="1.1"
   id="svg8"
   inkscape:version="0.92.5 (2060ec1f9f, 2020-04-08)"
   sodipodi:docname="hideMenu.svg">
  <defs
     id="defs2" />
  <sodipodi:namedview
     id="base"
     pagecolor="#ffffff"
     bordercolor="#666666"
     borderopacity="1.0"
     inkscape:pageopacity="0.0"
     inkscape:pageshadow="2"
     inkscape:zoom="1"
     inkscape:cx="194.34023"
     inkscape:cy="262.21483"
     inkscape:document-units="mm"
     inkscape:current-layer="layer1"
     showgrid="false"
     inkscape:window-width="1920"
     inkscape:window-height="1057"
     inkscape:window-x="-8"
     inkscape:window-y="-8"
     inkscape:window-maximized="1"
     fit-margin-top="0"
     fit-margin-left="0"
     fit-margin-right="0"
     fit-margin-bottom="0" />
  <metadata
     id="metadata5">
    <rdf:RDF>
      <cc:Work
         rdf:about="">
        <dc:format>image/svg+xml</dc:format>
        <dc:type
           rdf:resource="http://purl.org/dc/dcmitype/StillImage" />
        <dc:title></dc:title>
      </cc:Work>
    </rdf:RDF>
  </metadata>
  <g
     inkscape:label="Layer 1"
     inkscape:groupmode="layer"
     id="layer1"
     transform="translate(-146.05,-206.55686)">
    <path
       style="fill:#dcdcdc;stroke-width:0.35277778"
       d="m 194.54869,207.82149 c -0.52262,0.84691 -1.54602,2.49234 -2.27422,3.65651 -13.26246,21.20253 -46.22447,74.58138 -46.22447,74.85615 0,0.1607 0.35719,0.51576 0.79375,0.78902 0.43656,0.27325 2.40307,1.49208 4.37003,2.70851 l 3.57628,2.21168 20.41261,-32.96184 c 11.22693,-18.12901 20.49198,-32.96184 20.589,-32.96184 0.097,0 9.36206,14.83283 20.58899,32.96184 l 20.41261,32.96184 3.57628,-2.21168 c 1.96695,-1.21643 3.93347,-2.43526 4.37003,-2.70851 0.43656,-0.27326 0.79375,-0.62849 0.79375,-0.7894 0,-0.77398 -48.34598,-78.28031 -49.74365,-79.747 -0.15992,-0.16782 -0.71836,0.3878 -1.24099,1.23472 z"
       id="path39"
       inkscape:connector-curvature="0" />
  </g>
</svg>
