<?xml version="1.0" encoding="UTF-8" standalone="no"?>
<svg
   xmlns:dc="http://purl.org/dc/elements/1.1/"
   xmlns:cc="http://creativecommons.org/ns#"
   xmlns:rdf="http://www.w3.org/1999/02/22-rdf-syntax-ns#"
   xmlns:svg="http://www.w3.org/2000/svg"
   xmlns="http://www.w3.org/2000/svg"
   id="svg8"
   version="1.1"
   viewBox="0 0 188.34696 20.763088"
   height="20.763088mm"
   width="188.34695mm">
  <defs
     id="defs2" />
  <metadata
     id="metadata5">
    <rdf:RDF>
      <cc:Work
         rdf:about="">
        <dc:format>image/svg+xml</dc:format>
        <dc:type
           rdf:resource="http://purl.org/dc/dcmitype/StillImage" />
        <dc:title></dc:title>
      </cc:Work>
    </rdf:RDF>
  </metadata>
  <g
     transform="translate(-6.4120088,-124.24987)"
     id="layer2" />
  <g
     transform="translate(-6.4120088,-124.24987)"
     style="display:inline"
     id="layer1">
    <g
       id="flowRoot80"
       style="font-style:normal;font-variant:normal;font-weight:bold;font-stretch:normal;font-size:53.33333588px;line-height:1.25;font-family:'Adobe Fan Heiti Std';-inkscape-font-specification:'Adobe Fan Heiti Std Bold';letter-spacing:0px;word-spacing:0px;fill:#ffffff;fill-opacity:1;stroke:none"
       transform="matrix(0.44227176,0,0,0.28818437,-108.13048,-42.926921)"
       aria-label="golightlydev">
      <path
         id="path143"
         style="font-style:normal;font-variant:normal;font-weight:bold;font-stretch:normal;font-size:74.66666412px;font-family:'Adobe Fan Heiti Std';-inkscape-font-specification:'Adobe Fan Heiti Std Bold'"
         d="m 288.18133,592.4182 -0.37333,5.52533 h -0.14933 c -1.71734,-3.28533 -5.152,-6.42133 -11.27467,-6.42133 -8.96,0 -17.39733,7.76533 -17.39733,21.728 0,11.49866 6.64533,20.08533 16.352,20.08533 5.30133,0 9.33333,-2.53867 11.424,-6.048 h 0.14933 v 3.95733 c 0,9.33334 -4.77867,13.06667 -11.49867,13.06667 -4.62933,0 -8.58666,-1.41867 -11.12533,-2.912 l -1.94133,6.72 c 3.21066,1.94133 8.21333,2.98666 12.992,2.98666 19.488,0 20.16,-15.15733 20.16,-23.37066 V 604.2902 c 0,-5.52534 0.14933,-8.96 0.37333,-11.872 z m -1.344,23.968 c 0,6.86933 -4.48,10.304 -8.96,10.304 -6.42133,0 -10.08,-5.74934 -10.08,-13.81334 0,-8.81066 4.18134,-14.48533 10.15467,-14.48533 5.30133,0 8.88533,4.48 8.88533,9.93067 z" />
      <path
         id="path145"
         style="font-style:normal;font-variant:normal;font-weight:bold;font-stretch:normal;font-size:74.66666412px;font-family:'Adobe Fan Heiti Std';-inkscape-font-specification:'Adobe Fan Heiti Std Bold'"
         d="m 323.38783,591.5222 c -10.90133,0 -19.41333,7.84 -19.41333,21.728 0,13.29066 8.13867,21.13066 18.816,21.13066 9.25867,0 19.264,-6.34666 19.264,-21.728 0,-12.61866 -7.392,-21.13066 -18.66667,-21.13066 z m 9.78134,21.35466 c 0,8.21334 -3.88267,15.008 -10.15467,15.008 -6.34667,0 -10.15467,-6.79466 -10.15467,-14.85866 0,-7.09334 2.83734,-15.008 10.22934,-15.008 7.24266,0 10.08,8.064 10.08,14.85866 z" />
      <path
         id="path147"
         style="font-style:normal;font-variant:normal;font-weight:bold;font-stretch:normal;font-size:74.66666412px;font-family:'Adobe Fan Heiti Std';-inkscape-font-specification:'Adobe Fan Heiti Std Bold'"
         d="m 359.29083,573.67686 h -8.66133 v 59.88267 h 8.66133 z" />
      <path
         id="path149"
         style="font-style:normal;font-variant:normal;font-weight:bold;font-stretch:normal;font-size:74.66666412px;font-family:'Adobe Fan Heiti Std';-inkscape-font-specification:'Adobe Fan Heiti Std Bold'"
         d="m 379.725,581.06886 c 0,-2.912 -2.016,-5.07733 -5.00267,-5.07733 -2.98667,0 -5.07733,2.16533 -5.07733,5.07733 0,2.76267 2.016,5.00267 5.00266,5.00267 3.136,0 5.07734,-2.24 5.07734,-5.00267 z m -0.74667,11.27467 H 370.317 v 41.216 h 8.66133 z" />
      <path
         id="path151"
         style="font-style:normal;font-variant:normal;font-weight:bold;font-stretch:normal;font-size:74.66666412px;font-family:'Adobe Fan Heiti Std';-inkscape-font-specification:'Adobe Fan Heiti Std Bold'"
         d="m 416.80633,592.4182 -0.37333,5.52533 h -0.14933 c -1.71734,-3.28533 -5.152,-6.42133 -11.27467,-6.42133 -8.96,0 -17.39733,7.76533 -17.39733,21.728 0,11.49866 6.64533,20.08533 16.352,20.08533 5.30133,0 9.33333,-2.53867 11.424,-6.048 h 0.14933 v 3.95733 c 0,9.33334 -4.77867,13.06667 -11.49867,13.06667 -4.62933,0 -8.58666,-1.41867 -11.12533,-2.912 l -1.94133,6.72 c 3.21066,1.94133 8.21333,2.98666 12.992,2.98666 19.488,0 20.16,-15.15733 20.16,-23.37066 V 604.2902 c 0,-5.52534 0.14933,-8.96 0.37333,-11.872 z m -1.344,23.968 c 0,6.86933 -4.48,10.304 -8.96,10.304 -6.42133,0 -10.08,-5.74934 -10.08,-13.81334 0,-8.81066 4.18134,-14.48533 10.15467,-14.48533 5.30133,0 8.88533,4.48 8.88533,9.93067 z" />
      <path
         id="path153"
         style="font-style:normal;font-variant:normal;font-weight:bold;font-stretch:normal;font-size:74.66666412px;font-family:'Adobe Fan Heiti Std';-inkscape-font-specification:'Adobe Fan Heiti Std Bold'"
         d="m 469.18617,608.69553 c 0,-12.992 -7.168,-17.17333 -13.36534,-17.17333 -4.48,0 -9.10933,2.24 -11.79733,6.496 h -0.14933 v -24.34134 h -8.66134 v 59.88267 h 8.66134 v -25.16267 c 0,-6.19733 4.55466,-9.70666 8.81066,-9.70666 5.824,0 7.84,4.928 7.84,10.82666 v 24.04267 h 8.66134 z" />
      <path
         id="path155"
         style="font-style:normal;font-variant:normal;font-weight:bold;font-stretch:normal;font-size:74.66666412px;font-family:'Adobe Fan Heiti Std';-inkscape-font-specification:'Adobe Fan Heiti Std Bold'"
         d="m 481.84682,592.4182 h -5.824 v 6.496 h 5.824 v 21.28 c 0,5.376 0.97067,8.81066 3.06134,11.05066 1.792,2.016 4.704,3.136 8.13866,3.136 2.912,0 5.22667,-0.37333 6.72,-0.97066 l -0.29866,-6.64534 c -1.04534,0.29867 -2.09067,0.52267 -3.808,0.52267 -3.65867,0 -5.22667,-2.464 -5.22667,-7.54133 v -20.832 h 9.78133 v -6.496 h -9.78133 v -10.15467 l -8.58667,2.688 z" />
      <path
         id="path157"
         style="font-style:normal;font-variant:normal;font-weight:bold;font-stretch:normal;font-size:74.66666412px;font-family:'Adobe Fan Heiti Std';-inkscape-font-specification:'Adobe Fan Heiti Std Bold'"
         d="m 516.35332,573.67686 h -8.66133 v 59.88267 h 8.66133 z" />
      <path
         id="path159"
         style="font-style:normal;font-variant:normal;font-weight:bold;font-stretch:normal;font-size:74.66666412px;font-family:'Adobe Fan Heiti Std';-inkscape-font-specification:'Adobe Fan Heiti Std Bold'"
         d="m 550.82482,592.4182 -6.64533,23.14666 c -0.74667,2.76267 -1.568,5.824 -2.16533,8.21334 h -0.224 c -0.59734,-2.38934 -1.41867,-5.52534 -2.24,-8.21334 l -7.46667,-23.14666 h -9.48267 l 14.112,37.93066 c 0.37334,0.82134 0.448,1.344 0.448,1.792 0,1.12 -3.21066,9.48267 -12.17066,12.69333 l 2.24,7.31734 c 2.016,-0.448 5.824,-1.86667 9.55733,-5.30134 4.928,-4.77866 8.36267,-12.39466 13.216,-25.90933 l 9.93067,-28.52266 z" />
      <path
         id="path161"
         style="font-style:normal;font-variant:normal;font-weight:bold;font-stretch:normal;font-size:74.66666412px;font-family:'Adobe Fan Heiti Std';-inkscape-font-specification:'Adobe Fan Heiti Std Bold'"
         d="m 600.372,573.67686 h -8.66133 v 23.37067 h -0.14934 c -1.792,-3.136 -5.6,-5.52533 -10.90133,-5.52533 -9.184,0 -17.17333,7.91466 -17.17333,21.87733 0,12.69333 7.09333,20.98133 16.42666,20.98133 5.824,0 10.304,-3.06133 12.46934,-7.24266 h 0.224 l 0.448,6.42133 h 7.616 c -0.14934,-2.83733 -0.29867,-7.24267 -0.29867,-10.976 z m -8.66133,43.008 c 0,5.74934 -3.65867,10.67734 -9.25867,10.67734 -6.57067,0 -10.15467,-6.19734 -10.15467,-14.26134 0,-8.13866 3.65867,-14.70933 10.304,-14.70933 4.85334,0 9.10934,3.95733 9.10934,10.67733 z" />
      <path
         id="path163"
         style="font-style:normal;font-variant:normal;font-weight:bold;font-stretch:normal;font-size:74.66666412px;font-family:'Adobe Fan Heiti Std';-inkscape-font-specification:'Adobe Fan Heiti Std Bold'"
         d="m 640.05149,625.7942 c -2.688,1.12 -5.824,1.94133 -10.37867,1.94133 -6.496,0 -12.24533,-3.50933 -12.46933,-12.768 h 26.13333 c 0.14934,-1.04533 0.224,-2.24 0.224,-3.65867 0,-10.15466 -4.62933,-19.78666 -16.20266,-19.78666 -11.648,0 -18.51734,9.78133 -18.51734,22.02666 0,12.544 7.168,20.832 19.56267,20.832 5.6,0 10.15467,-1.12 13.06667,-2.464 z m -22.77333,-17.024 c 0.448,-4.77867 3.136,-11.05067 9.48266,-11.05067 6.64534,0 8.66134,6.12267 8.58667,11.05067 z" />
      <path
         id="path165"
         style="font-style:normal;font-variant:normal;font-weight:bold;font-stretch:normal;font-size:74.66666412px;font-family:'Adobe Fan Heiti Std';-inkscape-font-specification:'Adobe Fan Heiti Std Bold'"
         d="m 675.81448,592.4182 -6.64533,21.952 c -1.04534,3.584 -2.016,6.944 -2.76267,10.37866 h -0.224 c -0.74667,-3.43466 -1.64267,-6.86933 -2.76267,-10.45333 l -6.72,-21.87733 h -9.33333 l 14.41067,41.14133 h 8.288 l 14.784,-41.14133 z" />
    </g>
  </g>
  <g
     transform="translate(-6.4120088,-124.24987)"
     id="layer3" />
</svg>
